# xmcd
# 
# Track frame offsets:
#     150
#     38423
#     76106
#     110251
#     132089
#     160340
#     198363
#     240144
#     257768
#     291498
# 
# Disc length: 4456
# 
# Revision: 3
# Processed by: cddbd v1.5.2PL0 Copyright (c) Steve Scherf et al.
# Submitted via: fre:ac v1.0.31
# 
DISCID=7711660a
DTITLE=Kurt Rosenwinkel - Deep Song
DYEAR=2005
DGENRE=Jazz
TTITLE0=The Cloister
TTITLE1=Brooklyn Sometimes
TTITLE2=The Cross
TTITLE3=If I Should Lose You
TTITLE4=Synthetics
TTITLE5=Use of Light
TTITLE6=Cake
TTITLE7=Deep Song
TTITLE8=Gesture
TTITLE9=The Next Step
EXTD=YEAR: 2005
EXTT0=
EXTT1=
EXTT2=
EXTT3=
EXTT4=
EXTT5=
EXTT6=
EXTT7=
EXTT8=
EXTT9=
PLAYORDER=
